<svg xmlns="http://www.w3.org/2000/svg" viewBox="0 0 64 64">
  <defs>
    <!-- Gradiente das chamas -->
    <linearGradient id="flameGradient" x1="0%" y1="100%" x2="0%" y2="0%">
      <stop offset="0%" style="stop-color:#cc2200"/>
      <stop offset="40%" style="stop-color:#ff4500"/>
      <stop offset="70%" style="stop-color:#ff8c00"/>
      <stop offset="100%" style="stop-color:#ffd700"/>
    </linearGradient>
    <!-- Gradiente do coração vermelho sangue -->
    <linearGradient id="heartGradient" x1="0%" y1="0%" x2="100%" y2="100%">
      <stop offset="0%" style="stop-color:#dc143c"/>
      <stop offset="50%" style="stop-color:#b91c1c"/>
      <stop offset="100%" style="stop-color:#7f1d1d"/>
    </linearGradient>
  </defs>

  <!-- Chamas atrás do coração -->
  <path d="M32 2 C28 10, 18 12, 20 24 C22 18, 28 16, 30 20 C28 12, 32 6, 32 2" fill="url(#flameGradient)"/>
  <path d="M32 2 C36 10, 46 12, 44 24 C42 18, 36 16, 34 20 C36 12, 32 6, 32 2" fill="url(#flameGradient)"/>
  <path d="M20 6 C16 14, 8 16, 12 28 C14 22, 20 20, 21 24 C19 16, 22 10, 20 6" fill="url(#flameGradient)" opacity="0.8"/>
  <path d="M44 6 C48 14, 56 16, 52 28 C50 22, 44 20, 43 24 C45 16, 42 10, 44 6" fill="url(#flameGradient)" opacity="0.8"/>
  <path d="M26 4 C24 10, 16 12, 18 22 C20 18, 24 16, 25 20 C24 14, 26 8, 26 4" fill="url(#flameGradient)" opacity="0.6"/>
  <path d="M38 4 C40 10, 48 12, 46 22 C44 18, 40 16, 39 20 C40 14, 38 8, 38 4" fill="url(#flameGradient)" opacity="0.6"/>

  <!-- Coração principal - forma mais tradicional -->
  <path d="M32 58
           C32 58, 6 38, 6 24
           C6 14, 14 8, 24 8
           C28 8, 31 10, 32 14
           C33 10, 36 8, 40 8
           C50 8, 58 14, 58 24
           C58 38, 32 58, 32 58 Z"
        fill="url(#heartGradient)"/>

  <!-- Brilho no coração -->
  <path d="M18 20 C14 20, 12 24, 12 28 C12 30, 13 32, 14 34"
        stroke="rgba(255,255,255,0.3)"
        stroke-width="3"
        fill="none"
        stroke-linecap="round"/>
</svg>
